<svg width="308" height="78" viewBox="0 0 308 78" fill="none" xmlns="http://www.w3.org/2000/svg">
<path d="M108.668 47.2344C106.598 47.2344 104.742 46.7578 103.102 45.8047L103.875 43.2852C104.609 43.6914 105.406 44.0195 106.266 44.2695C107.133 44.5195 107.977 44.6445 108.797 44.6445C109.805 44.6445 110.566 44.4297 111.082 44C111.598 43.5625 111.855 42.9375 111.855 42.125C111.855 41.0469 111.137 40.3008 109.699 39.8867C109.598 39.8555 109.312 39.7734 108.844 39.6406C108.375 39.5 107.934 39.3672 107.52 39.2422C107.113 39.1094 106.82 39.0078 106.641 38.9375C104.336 38.125 103.184 36.6094 103.184 34.3906C103.184 32.8359 103.734 31.6367 104.836 30.793C105.945 29.9492 107.414 29.5273 109.242 29.5273C111.312 29.5273 113.098 29.9531 114.598 30.8047L113.637 33.125C112.105 32.4375 110.684 32.0938 109.371 32.0938C108.426 32.0938 107.711 32.2617 107.227 32.5977C106.75 32.9258 106.496 33.4766 106.465 34.25C106.465 35.2031 106.938 35.8242 107.883 36.1133C108.07 36.1836 108.531 36.3359 109.266 36.5703C110 36.8047 110.477 36.957 110.695 37.0273C112.266 37.543 113.387 38.1836 114.059 38.9492C114.738 39.7148 115.078 40.7812 115.078 42.1484C115.078 43.7812 114.5 45.0391 113.344 45.9219C112.188 46.7969 110.629 47.2344 108.668 47.2344ZM121.397 47V29.832H124.573V36.8516H132.33V29.832H135.506V47H132.33V39.3594H124.573V47H121.397ZM146.723 43.0273C147.575 44.1133 148.833 44.6562 150.497 44.6562C152.161 44.6562 153.415 44.1172 154.259 43.0391C155.11 41.9531 155.536 40.4219 155.536 38.4453C155.536 36.4453 155.11 34.8945 154.259 33.793C153.415 32.6914 152.165 32.1406 150.509 32.1406C148.845 32.1406 147.583 32.6953 146.723 33.8047C145.872 34.9062 145.446 36.4531 145.446 38.4453C145.446 40.4141 145.872 41.9414 146.723 43.0273ZM150.485 47.2461C147.899 47.2461 145.856 46.4648 144.356 44.9023C142.864 43.332 142.118 41.168 142.118 38.4102C142.118 35.6367 142.868 33.4727 144.368 31.918C145.868 30.3633 147.911 29.5859 150.497 29.5859C153.083 29.5859 155.122 30.3672 156.614 31.9297C158.106 33.4844 158.852 35.6484 158.852 38.4219C158.852 41.1641 158.102 43.3203 156.602 44.8906C155.102 46.4609 153.063 47.2461 150.485 47.2461ZM168.066 47L163.402 29.832H166.566L169.894 43.1914L173.808 29.9141H176.843L180.558 43.2383L183.956 29.832H187.12L182.316 47H179.023L175.355 34.4258L171.335 47H168.066ZM206.051 47V32.375H201.047V29.832H214.219V32.375H209.238V47H206.051ZM217.643 47L223.959 29.8203H227.416L233.639 47H230.381L228.682 42.1484H222.67L220.959 47H217.643ZM223.467 39.7812H227.873C226.467 35.2734 225.745 32.9453 225.705 32.7969L223.467 39.7812ZM238.95 47V29.832H242.126V44.4688H249.309L249.216 47H238.95ZM255.113 47V29.832H265.519L265.39 32.3516H258.288V36.7812H265.038V39.3008H258.288V44.4688H265.648L265.542 47H255.113ZM272.212 47V29.832H275.587C276.197 30.7852 277.435 32.707 279.302 35.5977C281.17 38.4883 282.306 40.2461 282.712 40.8711C282.83 41.0508 283.029 41.3555 283.31 41.7852C283.599 42.207 283.802 42.5078 283.92 42.6875C283.865 40.0078 283.837 38.6172 283.837 38.5156V29.832H286.732V47H283.31L275.564 34.9297L275.002 34.0039C275.064 36.0664 275.095 37.5156 275.095 38.3516V47H272.212ZM297.34 47V32.375H292.336V29.832H305.508V32.375H300.527V47H297.34Z" fill="#1B263B"/>
<path d="M103.102 45.8047L102.624 45.658L102.507 46.0376L102.85 46.237L103.102 45.8047ZM103.875 43.2852L104.117 42.8476L103.578 42.5494L103.397 43.1384L103.875 43.2852ZM106.266 44.2695L106.126 44.7496L106.127 44.75L106.266 44.2695ZM111.082 44L111.402 44.3841L111.406 44.3813L111.082 44ZM109.699 39.8867L109.552 40.3647L109.561 40.3672L109.699 39.8867ZM108.844 39.6406L108.7 40.1196L108.707 40.1217L108.844 39.6406ZM107.52 39.2422L107.364 39.7176L107.375 39.7209L107.52 39.2422ZM106.641 38.9375L106.823 38.4719L106.815 38.4688L106.807 38.4659L106.641 38.9375ZM104.836 30.793L104.533 30.395L104.532 30.396L104.836 30.793ZM114.598 30.8047L115.06 30.996L115.229 30.5879L114.845 30.3699L114.598 30.8047ZM113.637 33.125L113.432 33.5811L113.902 33.792L114.099 33.3163L113.637 33.125ZM107.227 32.5977L107.51 33.0095L107.512 33.0085L107.227 32.5977ZM106.465 34.25L105.965 34.2298L105.965 34.2399V34.25H106.465ZM107.883 36.1133L108.058 35.6451L108.044 35.6397L108.029 35.6351L107.883 36.1133ZM110.695 37.0273L110.851 36.5523L110.848 36.5513L110.695 37.0273ZM114.059 38.9492L113.683 39.279L113.685 39.2812L114.059 38.9492ZM113.344 45.9219L113.645 46.3206L113.647 46.3193L113.344 45.9219ZM108.668 46.7344C106.678 46.7344 104.91 46.2772 103.353 45.3724L102.85 46.237C104.574 47.2385 106.518 47.7344 108.668 47.7344V46.7344ZM103.58 45.9514L104.353 43.4319L103.397 43.1384L102.624 45.658L103.58 45.9514ZM103.633 43.7227C104.402 44.148 105.233 44.49 106.126 44.7496L106.405 43.7894C105.579 43.5491 104.817 43.2348 104.117 42.8476L103.633 43.7227ZM106.127 44.75C107.035 45.0117 107.925 45.1445 108.797 45.1445V44.1445C108.028 44.1445 107.231 44.0274 106.404 43.7891L106.127 44.75ZM108.797 45.1445C109.865 45.1445 110.761 44.9183 111.402 44.3841L110.762 43.6159C110.372 43.9411 109.744 44.1445 108.797 44.1445V45.1445ZM111.406 44.3813C112.056 43.8295 112.355 43.0518 112.355 42.125H111.355C111.355 42.8232 111.14 43.2955 110.759 43.6187L111.406 44.3813ZM112.355 42.125C112.355 41.4624 112.13 40.8803 111.676 40.4099C111.235 39.9517 110.606 39.6274 109.838 39.4063L109.561 40.3672C110.23 40.5601 110.679 40.8159 110.956 41.1037C111.222 41.3795 111.355 41.7095 111.355 42.125H112.355ZM109.846 39.4088C109.738 39.3755 109.446 39.2917 108.98 39.1596L108.707 40.1217C109.179 40.2552 109.457 40.3354 109.552 40.3646L109.846 39.4088ZM108.987 39.1617C108.519 39.0212 108.078 38.8884 107.664 38.7635L107.375 39.7209C107.789 39.8459 108.231 39.9788 108.7 40.1195L108.987 39.1617ZM107.675 38.7669C107.27 38.6344 106.988 38.5366 106.823 38.4719L106.458 39.4031C106.652 39.479 106.957 39.5843 107.364 39.7174L107.675 38.7669ZM106.807 38.4659C105.721 38.083 104.948 37.5496 104.446 36.8888C103.946 36.2318 103.684 35.4095 103.684 34.3906H102.684C102.684 35.5905 102.997 36.6353 103.65 37.494C104.3 38.3489 105.256 38.9795 106.474 39.4091L106.807 38.4659ZM103.684 34.3906C103.684 32.9701 104.178 31.9267 105.14 31.1899L104.532 30.396C103.291 31.3467 102.684 32.7018 102.684 34.3906H103.684ZM105.139 31.1909C106.137 30.4314 107.489 30.0273 109.242 30.0273V29.0273C107.339 29.0273 105.753 29.467 104.533 30.395L105.139 31.1909ZM109.242 30.0273C111.243 30.0273 112.94 30.4385 114.351 31.2395L114.845 30.3699C113.255 29.4678 111.382 29.0273 109.242 29.0273V30.0273ZM114.136 30.6134L113.175 32.9337L114.099 33.3163L115.06 30.996L114.136 30.6134ZM113.842 32.6689C112.263 31.9602 110.771 31.5938 109.371 31.5938V32.5938C110.596 32.5938 111.948 32.9148 113.432 33.5811L113.842 32.6689ZM109.371 31.5938C108.38 31.5938 107.546 31.7674 106.942 32.1868L107.512 33.0085C107.875 32.7561 108.471 32.5938 109.371 32.5938V31.5938ZM106.943 32.1858C106.296 32.6315 106.001 33.3567 105.965 34.2298L106.964 34.2702C106.992 33.5965 107.204 33.2201 107.51 33.0095L106.943 32.1858ZM105.965 34.25C105.965 34.8112 106.105 35.318 106.421 35.7335C106.736 36.1473 107.191 36.4245 107.737 36.5914L108.029 35.6351C107.63 35.513 107.375 35.3352 107.217 35.1279C107.061 34.9222 106.965 34.642 106.965 34.25H105.965ZM107.707 36.5814C107.909 36.6571 108.383 36.8136 109.114 37.0466L109.418 36.094C108.679 35.8583 108.232 35.7101 108.058 35.6451L107.707 36.5814ZM109.114 37.0466C109.848 37.2811 110.324 37.4332 110.542 37.5034L110.848 36.5513C110.629 36.4808 110.152 36.3283 109.418 36.094L109.114 37.0466ZM110.539 37.5024C112.072 38.0057 113.096 38.6102 113.683 39.279L114.434 38.6194C113.678 37.757 112.459 37.0802 110.851 36.5523L110.539 37.5024ZM113.685 39.2812C114.259 39.9283 114.578 40.862 114.578 42.1484H115.578C115.578 40.7005 115.217 39.5014 114.433 38.6173L113.685 39.2812ZM114.578 42.1484C114.578 43.6472 114.056 44.7487 113.04 45.5245L113.647 46.3193C114.944 45.3294 115.578 43.9153 115.578 42.1484H114.578ZM113.042 45.5232C111.999 46.3127 110.558 46.7344 108.668 46.7344V47.7344C110.7 47.7344 112.376 47.281 113.645 46.3206L113.042 45.5232ZM121.397 47H120.897V47.5H121.397V47ZM121.397 29.832V29.332H120.897V29.832H121.397ZM124.573 29.832H125.073V29.332H124.573V29.832ZM124.573 36.8516H124.073V37.3516H124.573V36.8516ZM132.33 36.8516V37.3516H132.83V36.8516H132.33ZM132.33 29.832V29.332H131.83V29.832H132.33ZM135.506 29.832H136.006V29.332H135.506V29.832ZM135.506 47V47.5H136.006V47H135.506ZM132.33 47H131.83V47.5H132.33V47ZM132.33 39.3594H132.83V38.8594H132.33V39.3594ZM124.573 39.3594V38.8594H124.073V39.3594H124.573ZM124.573 47V47.5H125.073V47H124.573ZM121.897 47V29.832H120.897V47H121.897ZM121.397 30.332H124.573V29.332H121.397V30.332ZM124.073 29.832V36.8516H125.073V29.832H124.073ZM124.573 37.3516H132.33V36.3516H124.573V37.3516ZM132.83 36.8516V29.832H131.83V36.8516H132.83ZM132.33 30.332H135.506V29.332H132.33V30.332ZM135.006 29.832V47H136.006V29.832H135.006ZM135.506 46.5H132.33V47.5H135.506V46.5ZM132.83 47V39.3594H131.83V47H132.83ZM132.33 38.8594H124.573V39.8594H132.33V38.8594ZM124.073 39.3594V47H125.073V39.3594H124.073ZM124.573 46.5H121.397V47.5H124.573V46.5ZM154.259 43.0391L153.865 42.7305L153.865 42.7309L154.259 43.0391ZM154.259 33.793L153.862 34.097L153.863 34.0988L154.259 33.793ZM146.723 33.8047L146.328 33.4985L146.328 33.4989L146.723 33.8047ZM144.356 44.9023L143.994 45.2468L143.996 45.2486L144.356 44.9023ZM156.614 31.9297L156.252 32.275L156.253 32.2759L156.614 31.9297ZM146.33 43.3359C147.296 44.5679 148.714 45.1562 150.497 45.1562V44.1562C148.951 44.1562 147.854 43.6586 147.117 42.7188L146.33 43.3359ZM150.497 45.1562C152.278 45.1562 153.693 44.5727 154.652 43.3472L153.865 42.7309C153.136 43.6616 152.044 44.1562 150.497 44.1562V45.1562ZM154.652 43.3476C155.597 42.1426 156.036 40.4867 156.036 38.4453H155.036C155.036 40.357 154.623 41.7636 153.865 42.7305L154.652 43.3476ZM156.036 38.4453C156.036 36.3815 155.597 34.7073 154.654 33.4872L153.863 34.0988C154.623 35.0818 155.036 36.5091 155.036 38.4453H156.036ZM154.656 33.4889C153.698 32.2393 152.287 31.6406 150.509 31.6406V32.6406C152.043 32.6406 153.131 33.1435 153.862 34.097L154.656 33.4889ZM150.509 31.6406C148.722 31.6406 147.3 32.2435 146.328 33.4985L147.119 34.1109C147.865 33.1472 148.967 32.6406 150.509 32.6406V31.6406ZM146.328 33.4989C145.385 34.7187 144.946 36.3888 144.946 38.4453H145.946C145.946 36.5175 146.359 35.0938 147.119 34.1105L146.328 33.4989ZM144.946 38.4453C144.946 40.4794 145.385 42.1312 146.33 43.3359L147.117 42.7188C146.358 41.7516 145.946 40.3487 145.946 38.4453H144.946ZM150.485 46.7461C148.007 46.7461 146.105 46.0016 144.717 44.5561L143.996 45.2486C145.608 46.9281 147.792 47.7461 150.485 47.7461V46.7461ZM144.719 44.5579C143.337 43.104 142.618 41.0762 142.618 38.4102H141.618C141.618 41.2597 142.391 43.5601 143.994 45.2468L144.719 44.5579ZM142.618 38.4102C142.618 35.728 143.341 33.7023 144.728 32.2651L144.008 31.5708C142.395 33.243 141.618 35.5455 141.618 38.4102H142.618ZM144.728 32.2651C146.115 30.8271 148.018 30.0859 150.497 30.0859V29.0859C147.804 29.0859 145.621 29.8995 144.008 31.5708L144.728 32.2651ZM150.497 30.0859C152.975 30.0859 154.873 30.8305 156.252 32.275L156.976 31.5844C155.371 29.9039 153.19 29.0859 150.497 29.0859V30.0859ZM156.253 32.2759C157.633 33.713 158.352 35.739 158.352 38.4219H159.352C159.352 35.5579 158.58 33.2558 156.975 31.5835L156.253 32.2759ZM158.352 38.4219C158.352 41.0708 157.63 43.0907 156.241 44.5453L156.964 45.236C158.574 43.5499 159.352 41.2574 159.352 38.4219H158.352ZM156.241 44.5453C154.853 45.9984 152.954 46.7461 150.485 46.7461V47.7461C153.172 47.7461 155.352 46.9234 156.964 45.236L156.241 44.5453ZM168.066 47L167.583 47.1311L167.683 47.5H168.066V47ZM163.402 29.832V29.332H162.748L162.919 29.9631L163.402 29.832ZM166.566 29.832L167.051 29.7112L166.956 29.332H166.566V29.832ZM169.894 43.1914L169.409 43.3123L169.853 45.0971L170.373 43.3328L169.894 43.1914ZM173.808 29.9141V29.4141H173.434L173.328 29.7727L173.808 29.9141ZM176.843 29.9141L177.325 29.7798L177.223 29.4141H176.843V29.9141ZM180.558 43.2383L180.076 43.3726L180.581 45.1825L181.042 43.3611L180.558 43.2383ZM183.956 29.832V29.332H183.567L183.472 29.7092L183.956 29.832ZM187.12 29.832L187.602 29.9668L187.779 29.332H187.12V29.832ZM182.316 47V47.5H182.695L182.797 47.1348L182.316 47ZM179.023 47L178.543 47.14L178.648 47.5H179.023V47ZM175.355 34.4258L175.835 34.2858L175.377 32.7153L174.878 34.2735L175.355 34.4258ZM171.335 47V47.5H171.7L171.811 47.1522L171.335 47ZM168.548 46.8689L163.884 29.7009L162.919 29.9631L167.583 47.1311L168.548 46.8689ZM163.402 30.332H166.566V29.332H163.402V30.332ZM166.08 29.9529L169.409 43.3123L170.379 43.0705L167.051 29.7112L166.08 29.9529ZM170.373 43.3328L174.287 30.0554L173.328 29.7727L169.414 43.05L170.373 43.3328ZM173.808 30.4141H176.843V29.4141H173.808V30.4141ZM176.361 30.0483L180.076 43.3726L181.039 43.104L177.325 29.7798L176.361 30.0483ZM181.042 43.3611L184.441 29.9549L183.472 29.7092L180.073 43.1154L181.042 43.3611ZM183.956 30.332H187.12V29.332H183.956V30.332ZM186.639 29.6973L181.834 46.8652L182.797 47.1348L187.602 29.9668L186.639 29.6973ZM182.316 46.5H179.023V47.5H182.316V46.5ZM179.503 46.86L175.835 34.2858L174.875 34.5658L178.543 47.14L179.503 46.86ZM174.878 34.2735L170.859 46.8478L171.811 47.1522L175.831 34.578L174.878 34.2735ZM171.335 46.5H168.066V47.5H171.335V46.5ZM206.051 47H205.551V47.5H206.051V47ZM206.051 32.375H206.551V31.875H206.051V32.375ZM201.047 32.375H200.547V32.875H201.047V32.375ZM201.047 29.832V29.332H200.547V29.832H201.047ZM214.219 29.832H214.719V29.332H214.219V29.832ZM214.219 32.375V32.875H214.719V32.375H214.219ZM209.238 32.375V31.875H208.738V32.375H209.238ZM209.238 47V47.5H209.738V47H209.238ZM206.551 47V32.375H205.551V47H206.551ZM206.051 31.875H201.047V32.875H206.051V31.875ZM201.547 32.375V29.832H200.547V32.375H201.547ZM201.047 30.332H214.219V29.332H201.047V30.332ZM213.719 29.832V32.375H214.719V29.832H213.719ZM214.219 31.875H209.238V32.875H214.219V31.875ZM208.738 32.375V47H209.738V32.375H208.738ZM209.238 46.5H206.051V47.5H209.238V46.5ZM217.643 47L217.174 46.8275L216.926 47.5H217.643V47ZM223.959 29.8203V29.3203H223.61L223.49 29.6478L223.959 29.8203ZM227.416 29.8203L227.887 29.65L227.767 29.3203H227.416V29.8203ZM233.639 47V47.5H234.352L234.109 46.8297L233.639 47ZM230.381 47L229.909 47.1653L230.027 47.5H230.381V47ZM228.682 42.1484L229.154 41.9832L229.037 41.6484H228.682V42.1484ZM222.67 42.1484V41.6484H222.316L222.199 41.9821L222.67 42.1484ZM220.959 47V47.5H221.313L221.431 47.1663L220.959 47ZM223.467 39.7812L222.991 39.6287L222.782 40.2812H223.467V39.7812ZM227.873 39.7812V40.2812H228.553L228.351 39.6323L227.873 39.7812ZM225.705 32.7969L226.189 32.6696L225.753 31.0114L225.229 32.6443L225.705 32.7969ZM218.112 47.1725L224.429 29.9929L223.49 29.6478L217.174 46.8275L218.112 47.1725ZM223.959 30.3203H227.416V29.3203H223.959V30.3203ZM226.946 29.9906L233.169 47.1703L234.109 46.8297L227.887 29.65L226.946 29.9906ZM233.639 46.5H230.381V47.5H233.639V46.5ZM230.853 46.8347L229.154 41.9832L228.21 42.3137L229.909 47.1653L230.853 46.8347ZM228.682 41.6484H222.67V42.6484H228.682V41.6484ZM222.199 41.9821L220.488 46.8337L221.431 47.1663L223.142 42.3147L222.199 41.9821ZM220.959 46.5H217.643V47.5H220.959V46.5ZM223.467 40.2812H227.873V39.2812H223.467V40.2812ZM228.351 39.6323C227.648 37.3785 227.116 35.6698 226.754 34.5061C226.574 33.9242 226.436 33.4788 226.341 33.1699C226.293 33.0154 226.257 32.8954 226.231 32.8098C226.218 32.7669 226.208 32.7333 226.2 32.7084C226.197 32.696 226.194 32.6863 226.192 32.6791C226.189 32.6712 226.189 32.6687 226.189 32.6696L225.222 32.9241C225.265 33.0871 225.994 35.4349 227.396 39.9302L228.351 39.6323ZM225.229 32.6443L222.991 39.6287L223.943 39.9338L226.182 32.9495L225.229 32.6443ZM238.95 47H238.45V47.5H238.95V47ZM238.95 29.832V29.332H238.45V29.832H238.95ZM242.126 29.832H242.626V29.332H242.126V29.832ZM242.126 44.4688H241.626V44.9688H242.126V44.4688ZM249.309 44.4688L249.809 44.4873L249.828 43.9688H249.309V44.4688ZM249.216 47V47.5H249.697L249.715 47.0185L249.216 47ZM239.45 47V29.832H238.45V47H239.45ZM238.95 30.332H242.126V29.332H238.95V30.332ZM241.626 29.832V44.4688H242.626V29.832H241.626ZM242.126 44.9688H249.309V43.9688H242.126V44.9688ZM248.81 44.4502L248.716 46.9815L249.715 47.0185L249.809 44.4873L248.81 44.4502ZM249.216 46.5H238.95V47.5H249.216V46.5ZM255.113 47H254.613V47.5H255.113V47ZM255.113 29.832V29.332H254.613V29.832H255.113ZM265.519 29.832L266.018 29.8576L266.045 29.332H265.519V29.832ZM265.39 32.3516V32.8516H265.865L265.889 32.3771L265.39 32.3516ZM258.288 32.3516V31.8516H257.788V32.3516H258.288ZM258.288 36.7812H257.788V37.2812H258.288V36.7812ZM265.038 36.7812H265.538V36.2812H265.038V36.7812ZM265.038 39.3008V39.8008H265.538V39.3008H265.038ZM258.288 39.3008V38.8008H257.788V39.3008H258.288ZM258.288 44.4688H257.788V44.9688H258.288V44.4688ZM265.648 44.4688L266.147 44.4896L266.169 43.9688H265.648V44.4688ZM265.542 47V47.5H266.022L266.042 47.0208L265.542 47ZM255.613 47V29.832H254.613V47H255.613ZM255.113 30.332H265.519V29.332H255.113V30.332ZM265.019 29.8065L264.89 32.326L265.889 32.3771L266.018 29.8576L265.019 29.8065ZM265.39 31.8516H258.288V32.8516H265.39V31.8516ZM257.788 32.3516V36.7812H258.788V32.3516H257.788ZM258.288 37.2812H265.038V36.2812H258.288V37.2812ZM264.538 36.7812V39.3008H265.538V36.7812H264.538ZM265.038 38.8008H258.288V39.8008H265.038V38.8008ZM257.788 39.3008V44.4688H258.788V39.3008H257.788ZM258.288 44.9688H265.648V43.9688H258.288V44.9688ZM265.148 44.4479L265.043 46.9792L266.042 47.0208L266.147 44.4896L265.148 44.4479ZM265.542 46.5H255.113V47.5H265.542V46.5ZM272.212 47H271.712V47.5H272.212V47ZM272.212 29.832V29.332H271.712V29.832H272.212ZM275.587 29.832L276.009 29.5627L275.861 29.332H275.587V29.832ZM282.712 40.8711L282.293 41.1436L282.294 41.1442L282.712 40.8711ZM283.31 41.7852L282.892 42.059L282.898 42.0678L283.31 41.7852ZM283.92 42.6875L283.501 42.9606L284.455 44.424L284.419 42.6773L283.92 42.6875ZM283.837 29.832V29.332H283.337V29.832H283.837ZM286.732 29.832H287.232V29.332H286.732V29.832ZM286.732 47V47.5H287.232V47H286.732ZM283.31 47L282.889 47.27L283.037 47.5H283.31V47ZM275.564 34.9297L275.137 35.1894L275.143 35.1997L275.564 34.9297ZM275.002 34.0039L275.429 33.7443L274.444 32.1239L274.502 34.0191L275.002 34.0039ZM275.095 47V47.5H275.595V47H275.095ZM272.712 47V29.832H271.712V47H272.712ZM272.212 30.332H275.587V29.332H272.212V30.332ZM275.166 30.1014C275.776 31.0556 277.015 32.9785 278.882 35.869L279.722 35.3264C277.855 32.4356 276.617 30.5147 276.009 29.5627L275.166 30.1014ZM278.882 35.869C280.749 38.7593 281.887 40.5178 282.293 41.1436L283.132 40.5986C282.726 39.9743 281.59 38.2173 279.722 35.3264L278.882 35.869ZM282.294 41.1442C282.411 41.3243 282.611 41.6293 282.892 42.059L283.729 41.5113C283.447 41.0816 283.248 40.7773 283.131 40.598L282.294 41.1442ZM282.898 42.0678C283.187 42.4896 283.387 42.7862 283.501 42.9606L284.338 42.4144C284.218 42.2294 284.012 41.9245 283.723 41.5025L282.898 42.0678ZM284.419 42.6773C284.365 39.9918 284.337 38.6104 284.337 38.5156H283.337C283.337 38.624 283.365 40.0238 283.42 42.6977L284.419 42.6773ZM284.337 38.5156V29.832H283.337V38.5156H284.337ZM283.837 30.332H286.732V29.332H283.837V30.332ZM286.232 29.832V47H287.232V29.832H286.232ZM286.732 46.5H283.31V47.5H286.732V46.5ZM283.731 46.73L275.985 34.6596L275.143 35.1997L282.889 47.27L283.731 46.73ZM275.991 34.6701L275.429 33.7443L274.574 34.2635L275.137 35.1893L275.991 34.6701ZM274.502 34.0191C274.564 36.0817 274.595 37.524 274.595 38.3516H275.595C275.595 37.5072 275.564 36.0511 275.501 33.9888L274.502 34.0191ZM274.595 38.3516V47H275.595V38.3516H274.595ZM275.095 46.5H272.212V47.5H275.095V46.5ZM297.34 47H296.84V47.5H297.34V47ZM297.34 32.375H297.84V31.875H297.34V32.375ZM292.336 32.375H291.836V32.875H292.336V32.375ZM292.336 29.832V29.332H291.836V29.832H292.336ZM305.508 29.832H306.008V29.332H305.508V29.832ZM305.508 32.375V32.875H306.008V32.375H305.508ZM300.527 32.375V31.875H300.027V32.375H300.527ZM300.527 47V47.5H301.027V47H300.527ZM297.84 47V32.375H296.84V47H297.84ZM297.34 31.875H292.336V32.875H297.34V31.875ZM292.836 32.375V29.832H291.836V32.375H292.836ZM292.336 30.332H305.508V29.332H292.336V30.332ZM305.008 29.832V32.375H306.008V29.832H305.008ZM305.508 31.875H300.527V32.875H305.508V31.875ZM300.027 32.375V47H301.027V32.375H300.027ZM300.527 46.5H297.34V47.5H300.527V46.5Z" fill="#1B263B"/>
<path d="M0 39.9717L21.9108 52.1444L39.9717 0L0 39.9717Z" fill="#008DC3"/>
<path d="M58.0892 52.1445L39.9717 62.2224L66.695 77.0561L58.0892 52.1445Z" fill="#F7B40D"/>
<path d="M13.3052 77.0561L39.9718 62.2224L21.911 52.1445L13.3052 77.0561Z" fill="#F7B40D"/>
<path d="M80 39.9717L40.0283 0L58.0892 52.1444L80 39.9717Z" fill="#008DC3"/>
<path d="M39.9715 0.0566171L21.9673 52.201L40.0281 62.2788L58.1456 52.201L40.0848 0.0566171L40.0281 0L39.9715 0.0566171Z" fill="#012C56"/>
</svg>
